<?xml version="1.0" encoding="utf-8"?>
<?xml-stylesheet type="text/xsl" href="rss1.xsl"?>
<rss version="2.0" xmlns:atom="http://www.w3.org/2005/Atom" xmlns:content="http://purl.org/rss/1.0/modules/content/" xmlns:dc="http://purl.org/dc/elements/1.1/" xmlns:media="http://search.yahoo.com/mrss/">
<channel>
 <title>Getty</title>
 <link>http://www.gettyimg.com/</link>
 <atom:link href="http://www.gettyimg.com/" rel="self" type="application/rss+xml" />

 
                <item>
                <title><![CDATA[【Music Videos】MTV Especiales: Tate McRae [Fan Made]]]></title>
                <link><![CDATA[https://sharemania.us/threads/mtv-especiales-tate-mcrae-fan-made.231577/]]></link>
                <description><![CDATA[<article>
<blockquote class="messageText SelectQuoteContainer ugc baseHtml">
<a href="https://imgbox.com/Ok1HPdYD" target="_blank" class="externalLink" rel="nofollow"><img src="https://images2.imgbox.com/83/ac/Ok1HPdYD_o.png" class="bbCodeImage LbImage" alt="[​IMG]" data-url="https://images2.imgbox.com/83/ac/Ok1HPdYD_o.png"></a><br>
Based on "MTV Especiales" of the (now) defunct MTV Argentina, I created a special with the best videos of Tate McRae career, using the Trollbäck+Company 2017 MTV rebrand.<br>
<br>
Tracklist:<br>
1 tear myself apart<br>
2 all my friends are fake<br>
3 stupid<br>
4 you broke me first<br>
5 vicious (featuring Lil Mosey) (Animated Video)<br>
6 don't be sad<br>
7 Lie To Me (with Ali Gatie)<br>
8 r u ok<br>
9 rubberband<br>
10 bad ones<br>
11 You (with Regard &amp; Troye Sivan)<br>
12 working (with Khalid)<br>
13 that way (aka friends don't look at friends that way)<br>
14 feel like shit<br>
15 she's all i wanna be<br>
16 what would you do?<br>
17 don't come back (vertical video)<br>
18 10:35 (featuring Tiësto)<br>
19 greedy<br>
<br>
I hope you enjoy!<br>
<br>
<div class="ToggleTriggerAnchor bbCodeSpoilerContainer">
<button type="button" class="button bbCodeSpoilerButton ToggleTrigger Tooltip JsOnly" data-target="> .SpoilerTarget"><span>Spoiler: <span class="SpoilerTitle">MediaInfo</span></span></button>
<div class="SpoilerTarget bbCodeSpoilerText">Complete name : D:\Vídeos\MTV Especiales - Tate McRae.mp4<br>
Format : MPEG-4<br>
Format profile : Base Media / Version 2<br>
Codec ID : mp42 (mp42/mp41)<br>
File size : 2.71 GiB<br>
Duration : 58 min 59 s<br>
Overall bit rate mode : Variable<br>
Overall bit rate : 6 578 kb/s<br>
Frame rate : 29.970 FPS<br>
Encoded date : 2023-11-03 03:23:23 UTC<br>
Tagged date : 2023-11-03 03:23:23 UTC<br>
<br>
Video<br>
ID : 1<br>
Format : AVC<br>
Format/Info : Advanced Video Codec<br>
Format profile : Main@L4.1<br>
Format settings : CABAC / 1 Ref Frames<br>
Format settings, CABAC : Yes<br>
Format settings, Reference : 1 frame<br>
Format settings, GOP : M=1, N=30<br>
Codec ID : avc1<br>
Codec ID/Info : Advanced Video Coding<br>
Duration : 58 min 59 s<br>
Bit rate : 6 257 kb/s<br>
Width : 1 920 pixels<br>
Height : 1 080 pixels<br>
Display aspect ratio : 16:9<br>
Frame rate mode : Constant<br>
Frame rate : 29.970 (30000/1001) FPS<br>
Color space : YUV<br>
Chroma subsampling : 4:2:0<br>
Bit depth : 8 bits<br>
Scan type : Progressive<br>
Bits/(Pixel*Frame) : 0.101<br>
Stream size : 2.58 GiB (95%)<br>
Language : English<br>
Encoded date : 2023-11-03 03:23:23 UTC<br>
Tagged date : 2023-11-03 03:23:23 UTC<br>
Codec configuration box : avcC<br>
<br>
Audio<br>
ID : 2<br>
Format : AAC LC<br>
Format/Info : Advanced Audio Codec Low Complexity<br>
Codec ID : mp4a-40-2<br>
Duration : 58 min 59 s<br>
Source duration : 58 min 59 s<br>
Bit rate mode : Variable<br>
Bit rate : 317 kb/s<br>
Maximum bit rate : 550 kb/s<br>
Channel(s) : 2 channels<br>
Channel layout : L R<br>
Sampling rate : 48.0 kHz<br>
Frame rate : 46.875 FPS (1024 SPF)<br>
Compression mode : Lossy<br>
Stream size : 134 MiB (5%)<br>
Source stream size : 134 MiB (5%)<br>
Language : English<br>
Encoded date : 2023-11-03 03:23:23 UTC<br>
Tagged date : 2023-11-03 03:23:23 UTC</div>
</div><br>
<div class="bbCodeBlock bbCodeVfcHH HiddenContent">
<div class="attribution type">Hidden Content:</div>
<blockquote>You must reply before you can see the hidden data contained here.</blockquote>
</div>
<div class="messageTextEndMarker">&nbsp;</div>
</blockquote>
</article>]]></description>
                <author><![CDATA[gui_eda]]></author>
                </item>

                </channel></rss>